<svg width="54" height="24" viewBox="0 0 54 24" fill="none" xmlns="http://www.w3.org/2000/svg">
<path d="M4.5 0.25H49.5C50.6997 0.25 51.7749 0.574889 52.543 1.08691C53.3128 1.60013 53.75 2.28153 53.75 3V8.75391C52.5633 8.79575 51.4844 9.13443 50.6797 9.6709C49.8206 10.2436 49.25 11.0622 49.25 12C49.25 12.9378 49.8206 13.7564 50.6797 14.3291C51.4844 14.8656 52.5634 15.2033 53.75 15.2451V21C53.75 21.7185 53.3128 22.3999 52.543 22.9131C51.7749 23.4251 50.6997 23.75 49.5 23.75H4.5C3.30032 23.75 2.22507 23.4251 1.45703 22.9131C0.687211 22.3999 0.25 21.7185 0.25 21V15.2451C1.43665 15.2033 2.51562 14.8656 3.32031 14.3291C4.1794 13.7564 4.75 12.9378 4.75 12C4.75 11.0622 4.1794 10.2436 3.32031 9.6709C2.51561 9.13443 1.43666 8.79575 0.25 8.75391V3C0.25 2.28153 0.687211 1.60013 1.45703 1.08691C2.22507 0.574889 3.30032 0.25 4.5 0.25Z" fill="#E90101" stroke="black" stroke-width="0.5"/>
</svg>
