<svg width="543" height="53" viewBox="0 0 543 53" fill="none" xmlns="http://www.w3.org/2000/svg">
<path d="M53.1154 34.0873C51.9421 34.0873 50.9928 33.8953 50.2674 33.5113C49.5421 33.1059 49.0088 32.5513 48.6674 31.8473C48.3261 31.1219 48.1554 30.3113 48.1554 29.4153V27.4953H50.2354V29.1273C50.2354 30.2153 50.4701 31.0686 50.9394 31.6873C51.4301 32.2846 52.1554 32.5939 53.1154 32.6153C53.9901 32.6153 54.6834 32.3273 55.1954 31.7513C55.7288 31.1753 55.9954 30.3966 55.9954 29.4153V27.6553C55.9954 26.6953 55.6861 25.9699 55.0674 25.4793C54.4701 24.9886 53.6381 24.7219 52.5714 24.6793H50.7154V23.3993H52.6034C53.0941 23.3993 53.5634 23.3139 54.0114 23.1433C54.4594 22.9513 54.8221 22.6846 55.0994 22.3433C55.3768 22.0659 55.5688 21.7673 55.6754 21.4473C55.7821 21.1059 55.8354 20.7433 55.8354 20.3593V19.2393C55.8354 18.4286 55.6221 17.7459 55.1954 17.1913C54.7688 16.6153 54.0754 16.3273 53.1154 16.3273C52.1341 16.3273 51.4301 16.6259 51.0034 17.2233C50.5768 17.8206 50.3634 18.5886 50.3634 19.5273V20.6473H48.2834V19.2393C48.2834 17.8526 48.6674 16.7753 49.4354 16.0073C50.2248 15.2393 51.4514 14.8553 53.1154 14.8553C54.8434 14.8553 56.0808 15.2286 56.8274 15.9753C57.5954 16.7006 57.9794 17.7459 57.9794 19.1113V20.0713C57.9794 21.1806 57.7021 22.0766 57.1474 22.7593C56.5928 23.4206 55.8674 23.8686 54.9714 24.1033C55.9954 24.2739 56.7741 24.7219 57.3074 25.4473C57.8408 26.1513 58.1074 27.0473 58.1074 28.1353V29.4153C58.1074 30.3539 57.9474 31.1753 57.6274 31.8793C57.3074 32.5833 56.7848 33.1273 56.0594 33.5113C55.3341 33.8953 54.3528 34.0873 53.1154 34.0873ZM65.7777 34.2473C64.8817 34.2473 64.0603 34.0446 63.3137 33.6393C62.567 33.2339 61.9697 32.6046 61.5217 31.7513C61.095 30.8766 60.8817 29.7566 60.8817 28.3913V20.2313C60.8817 18.3326 61.3617 16.9353 62.3217 16.0393C63.2817 15.1433 64.455 14.6953 65.8417 14.6953C67.2283 14.6953 68.3803 15.1539 69.2977 16.0713C70.2363 16.9673 70.7057 18.3539 70.7057 20.2313V28.3913C70.7057 29.7779 70.4923 30.9086 70.0657 31.7833C69.639 32.6366 69.0523 33.2659 68.3057 33.6713C67.559 34.0553 66.7163 34.2473 65.7777 34.2473ZM65.8097 32.9993C66.6417 32.9993 67.3243 32.6686 67.8577 32.0073C68.4123 31.3459 68.6897 30.4073 68.6897 29.1913V19.7833C68.6897 18.5673 68.4123 17.6286 67.8577 16.9673C67.303 16.3059 66.6203 15.9753 65.8097 15.9753C64.9777 15.9753 64.2843 16.3059 63.7297 16.9673C63.175 17.6286 62.8977 18.5673 62.8977 19.7833V29.1913C62.8977 30.4073 63.175 31.3459 63.7297 32.0073C64.2843 32.6686 64.9777 32.9993 65.8097 32.9993Z" fill="black"/>
<path d="M12.1323 12.1094V14.7109C12.1323 16.1094 12.0073 17.2891 11.7573 18.25C11.5073 19.2109 11.1479 19.9844 10.6792 20.5703C10.2104 21.1562 9.64404 21.582 8.97998 21.8477C8.32373 22.1055 7.58154 22.2344 6.75342 22.2344C6.09717 22.2344 5.4917 22.1523 4.93701 21.9883C4.38232 21.8242 3.88232 21.5625 3.43701 21.2031C2.99951 20.8359 2.62451 20.3594 2.31201 19.7734C1.99951 19.1875 1.76123 18.4766 1.59717 17.6406C1.43311 16.8047 1.35107 15.8281 1.35107 14.7109V12.1094C1.35107 10.7109 1.47607 9.53906 1.72607 8.59375C1.98389 7.64844 2.34717 6.89063 2.81592 6.32031C3.28467 5.74219 3.84717 5.32812 4.50342 5.07812C5.16748 4.82813 5.90967 4.70312 6.72998 4.70312C7.39404 4.70312 8.00342 4.78516 8.55811 4.94922C9.12061 5.10547 9.62061 5.35938 10.0581 5.71094C10.4956 6.05469 10.8667 6.51563 11.1714 7.09375C11.4839 7.66406 11.7222 8.36328 11.8862 9.19141C12.0503 10.0195 12.1323 10.9922 12.1323 12.1094ZM9.95264 15.0625V11.7461C9.95264 10.9805 9.90576 10.3086 9.81201 9.73047C9.72607 9.14453 9.59717 8.64453 9.42529 8.23047C9.25342 7.81641 9.03467 7.48047 8.76904 7.22266C8.51123 6.96484 8.21045 6.77734 7.8667 6.66016C7.53076 6.53516 7.15186 6.47266 6.72998 6.47266C6.21436 6.47266 5.75732 6.57031 5.35889 6.76562C4.96045 6.95312 4.62451 7.25391 4.35107 7.66797C4.08545 8.08203 3.88232 8.625 3.7417 9.29688C3.60107 9.96875 3.53076 10.7852 3.53076 11.7461V15.0625C3.53076 15.8281 3.57373 16.5039 3.65967 17.0898C3.75342 17.6758 3.89014 18.1836 4.06982 18.6133C4.24951 19.0352 4.46826 19.3828 4.72607 19.6562C4.98389 19.9297 5.28076 20.1328 5.6167 20.2656C5.96045 20.3906 6.33936 20.4531 6.75342 20.4531C7.28467 20.4531 7.74951 20.3516 8.14795 20.1484C8.54639 19.9453 8.87842 19.6289 9.14404 19.1992C9.41748 18.7617 9.62061 18.2031 9.75342 17.5234C9.88623 16.8359 9.95264 16.0156 9.95264 15.0625ZM17.6636 13.8789L15.9292 13.4336L16.7847 4.9375H25.5386V6.94141H18.6245L18.1089 11.582C18.4214 11.4023 18.8159 11.2344 19.2925 11.0781C19.7769 10.9219 20.3315 10.8438 20.9565 10.8438C21.7456 10.8438 22.4526 10.9805 23.0776 11.2539C23.7026 11.5195 24.2339 11.9023 24.6714 12.4023C25.1167 12.9023 25.4565 13.5039 25.6909 14.207C25.9253 14.9102 26.0425 15.6953 26.0425 16.5625C26.0425 17.3828 25.9292 18.1367 25.7026 18.8242C25.4839 19.5117 25.1519 20.1133 24.7065 20.6289C24.2612 21.1367 23.6987 21.5312 23.019 21.8125C22.3472 22.0938 21.5542 22.2344 20.6401 22.2344C19.9526 22.2344 19.3003 22.1406 18.6831 21.9531C18.0737 21.7578 17.5269 21.4648 17.0425 21.0742C16.5659 20.6758 16.1753 20.1836 15.8706 19.5977C15.5737 19.0039 15.3862 18.3086 15.3081 17.5117H17.3706C17.4644 18.1523 17.6519 18.6914 17.9331 19.1289C18.2144 19.5664 18.5815 19.8984 19.0347 20.125C19.4956 20.3438 20.0308 20.4531 20.6401 20.4531C21.1558 20.4531 21.6128 20.3633 22.0112 20.1836C22.4097 20.0039 22.7456 19.7461 23.019 19.4102C23.2925 19.0742 23.4995 18.668 23.6401 18.1914C23.7886 17.7148 23.8628 17.1797 23.8628 16.5859C23.8628 16.0469 23.7886 15.5469 23.6401 15.0859C23.4917 14.625 23.269 14.2227 22.9722 13.8789C22.6831 13.5352 22.3276 13.2695 21.9058 13.082C21.4839 12.8867 20.9995 12.7891 20.4526 12.7891C19.7261 12.7891 19.1753 12.8867 18.8003 13.082C18.4331 13.2773 18.0542 13.543 17.6636 13.8789ZM11.0776 45.6875C11.0776 45.2891 11.0151 44.9375 10.8901 44.6328C10.7729 44.3203 10.562 44.0391 10.2573 43.7891C9.96045 43.5391 9.54639 43.3008 9.01514 43.0742C8.4917 42.8477 7.82764 42.6172 7.02295 42.3828C6.1792 42.1328 5.41748 41.8555 4.73779 41.5508C4.05811 41.2383 3.47607 40.8828 2.9917 40.4844C2.50732 40.0859 2.13623 39.6289 1.87842 39.1133C1.62061 38.5977 1.4917 38.0078 1.4917 37.3438C1.4917 36.6797 1.62842 36.0664 1.90186 35.5039C2.17529 34.9414 2.56592 34.4531 3.07373 34.0391C3.58936 33.6172 4.20264 33.2891 4.91357 33.0547C5.62451 32.8203 6.41748 32.7031 7.29248 32.7031C8.57373 32.7031 9.65967 32.9492 10.5503 33.4414C11.4487 33.9258 12.1323 34.5625 12.6011 35.3516C13.0698 36.1328 13.3042 36.9688 13.3042 37.8594H11.0542C11.0542 37.2188 10.9175 36.6523 10.644 36.1602C10.3706 35.6602 9.95654 35.2695 9.40186 34.9883C8.84717 34.6992 8.14404 34.5547 7.29248 34.5547C6.48779 34.5547 5.82373 34.6758 5.30029 34.918C4.77686 35.1602 4.38623 35.4883 4.12842 35.9023C3.87842 36.3164 3.75342 36.7891 3.75342 37.3203C3.75342 37.6797 3.82764 38.0078 3.97607 38.3047C4.13232 38.5938 4.37061 38.8633 4.69092 39.1133C5.01904 39.3633 5.43311 39.5938 5.93311 39.8047C6.44092 40.0156 7.04639 40.2188 7.74951 40.4141C8.71826 40.6875 9.5542 40.9922 10.2573 41.3281C10.9604 41.6641 11.5386 42.043 11.9917 42.4648C12.4526 42.8789 12.7925 43.3516 13.0112 43.8828C13.2378 44.4062 13.3511 45 13.3511 45.6641C13.3511 46.3594 13.2104 46.9883 12.9292 47.5508C12.6479 48.1133 12.2456 48.5938 11.7222 48.9922C11.1987 49.3906 10.5698 49.6992 9.83545 49.918C9.10889 50.1289 8.29639 50.2344 7.39795 50.2344C6.60889 50.2344 5.83154 50.125 5.06592 49.9062C4.30811 49.6875 3.6167 49.3594 2.9917 48.9219C2.37451 48.4844 1.87842 47.9453 1.50342 47.3047C1.13623 46.6562 0.952637 45.9062 0.952637 45.0547H3.20264C3.20264 45.6406 3.31592 46.1445 3.54248 46.5664C3.76904 46.9805 4.07764 47.3242 4.46826 47.5977C4.8667 47.8711 5.31592 48.0742 5.81592 48.207C6.32373 48.332 6.85107 48.3945 7.39795 48.3945C8.18701 48.3945 8.85498 48.2852 9.40186 48.0664C9.94873 47.8477 10.3628 47.5352 10.644 47.1289C10.9331 46.7227 11.0776 46.2422 11.0776 45.6875ZM23.6636 47.0703V37.3203H25.8433V50H23.769L23.6636 47.0703ZM24.0737 44.3984L24.9761 44.375C24.9761 45.2188 24.8862 46 24.7065 46.7188C24.5347 47.4297 24.2534 48.0469 23.8628 48.5703C23.4722 49.0938 22.9604 49.5039 22.3276 49.8008C21.6948 50.0898 20.9253 50.2344 20.019 50.2344C19.4019 50.2344 18.8354 50.1445 18.3198 49.9648C17.812 49.7852 17.3745 49.5078 17.0073 49.1328C16.6401 48.7578 16.355 48.2695 16.1519 47.668C15.9565 47.0664 15.8589 46.3438 15.8589 45.5V37.3203H18.0269V45.5234C18.0269 46.0938 18.0894 46.5664 18.2144 46.9414C18.3472 47.3086 18.5229 47.6016 18.7417 47.8203C18.9683 48.0312 19.2183 48.1797 19.4917 48.2656C19.7729 48.3516 20.062 48.3945 20.3589 48.3945C21.2808 48.3945 22.0112 48.2188 22.5503 47.8672C23.0894 47.5078 23.4761 47.0273 23.7104 46.4258C23.9526 45.8164 24.0737 45.1406 24.0737 44.3984ZM31.3159 40.0273V50H29.1479V37.3203H31.1987L31.3159 40.0273ZM30.8003 43.1797L29.8979 43.1445C29.9058 42.2773 30.0347 41.4766 30.2847 40.7422C30.5347 40 30.8862 39.3555 31.3394 38.8086C31.7925 38.2617 32.3315 37.8398 32.9565 37.543C33.5894 37.2383 34.2886 37.0859 35.0542 37.0859C35.6792 37.0859 36.2417 37.1719 36.7417 37.3438C37.2417 37.5078 37.6675 37.7734 38.019 38.1406C38.3784 38.5078 38.6519 38.9844 38.8394 39.5703C39.0269 40.1484 39.1206 40.8555 39.1206 41.6914V50H36.9409V41.668C36.9409 41.0039 36.8433 40.4727 36.6479 40.0742C36.4526 39.668 36.1675 39.375 35.7925 39.1953C35.4175 39.0078 34.9565 38.9141 34.4097 38.9141C33.8706 38.9141 33.3784 39.0273 32.9331 39.2539C32.4956 39.4805 32.1167 39.793 31.7964 40.1914C31.4839 40.5898 31.2378 41.0469 31.0581 41.5625C30.8862 42.0703 30.8003 42.6094 30.8003 43.1797Z" fill="black"/>
<path d="M218.115 34.224C216.942 34.224 215.993 34.032 215.267 33.648C214.542 33.2427 214.009 32.688 213.667 31.984C213.326 31.2587 213.155 30.448 213.155 29.552V27.632H215.235V29.264C215.235 30.352 215.47 31.2053 215.939 31.824C216.43 32.4213 217.155 32.7307 218.115 32.752C218.99 32.752 219.683 32.464 220.195 31.888C220.729 31.312 220.995 30.5333 220.995 29.552V27.792C220.995 26.832 220.686 26.1067 220.067 25.616C219.47 25.1253 218.638 24.8587 217.571 24.816H215.715V23.536H217.603C218.094 23.536 218.563 23.4507 219.011 23.28C219.459 23.088 219.822 22.8213 220.099 22.48C220.377 22.2027 220.569 21.904 220.675 21.584C220.782 21.2427 220.835 20.88 220.835 20.496V19.376C220.835 18.5653 220.622 17.8827 220.195 17.328C219.769 16.752 219.075 16.464 218.115 16.464C217.134 16.464 216.43 16.7627 216.003 17.36C215.577 17.9573 215.363 18.7253 215.363 19.664V20.784H213.283V19.376C213.283 17.9893 213.667 16.912 214.435 16.144C215.225 15.376 216.451 14.992 218.115 14.992C219.843 14.992 221.081 15.3653 221.827 16.112C222.595 16.8373 222.979 17.8827 222.979 19.248V20.208C222.979 21.3173 222.702 22.2133 222.147 22.896C221.593 23.5573 220.867 24.0053 219.971 24.24C220.995 24.4107 221.774 24.8587 222.307 25.584C222.841 26.288 223.107 27.184 223.107 28.272V29.552C223.107 30.4907 222.947 31.312 222.627 32.016C222.307 32.72 221.785 33.264 221.059 33.648C220.334 34.032 219.353 34.224 218.115 34.224ZM228.09 34V17.936H225.05V16.784L226.65 16.752C227.183 16.7307 227.567 16.6027 227.802 16.368C228.058 16.1333 228.26 15.7067 228.41 15.088H230.106V34H228.09Z" fill="black"/>
<path d="M170.132 12.1094V14.7109C170.132 16.1094 170.007 17.2891 169.757 18.25C169.507 19.2109 169.148 19.9844 168.679 20.5703C168.21 21.1562 167.644 21.582 166.98 21.8477C166.324 22.1055 165.582 22.2344 164.753 22.2344C164.097 22.2344 163.492 22.1523 162.937 21.9883C162.382 21.8242 161.882 21.5625 161.437 21.2031C161 20.8359 160.625 20.3594 160.312 19.7734C160 19.1875 159.761 18.4766 159.597 17.6406C159.433 16.8047 159.351 15.8281 159.351 14.7109V12.1094C159.351 10.7109 159.476 9.53906 159.726 8.59375C159.984 7.64844 160.347 6.89063 160.816 6.32031C161.285 5.74219 161.847 5.32812 162.503 5.07812C163.167 4.82813 163.91 4.70312 164.73 4.70312C165.394 4.70312 166.003 4.78516 166.558 4.94922C167.121 5.10547 167.621 5.35938 168.058 5.71094C168.496 6.05469 168.867 6.51563 169.171 7.09375C169.484 7.66406 169.722 8.36328 169.886 9.19141C170.05 10.0195 170.132 10.9922 170.132 12.1094ZM167.953 15.0625V11.7461C167.953 10.9805 167.906 10.3086 167.812 9.73047C167.726 9.14453 167.597 8.64453 167.425 8.23047C167.253 7.81641 167.035 7.48047 166.769 7.22266C166.511 6.96484 166.21 6.77734 165.867 6.66016C165.531 6.53516 165.152 6.47266 164.73 6.47266C164.214 6.47266 163.757 6.57031 163.359 6.76562C162.96 6.95312 162.625 7.25391 162.351 7.66797C162.085 8.08203 161.882 8.625 161.742 9.29688C161.601 9.96875 161.531 10.7852 161.531 11.7461V15.0625C161.531 15.8281 161.574 16.5039 161.66 17.0898C161.753 17.6758 161.89 18.1836 162.07 18.6133C162.25 19.0352 162.468 19.3828 162.726 19.6562C162.984 19.9297 163.281 20.1328 163.617 20.2656C163.96 20.3906 164.339 20.4531 164.753 20.4531C165.285 20.4531 165.75 20.3516 166.148 20.1484C166.546 19.9453 166.878 19.6289 167.144 19.1992C167.417 18.7617 167.621 18.2031 167.753 17.5234C167.886 16.8359 167.953 16.0156 167.953 15.0625ZM175.664 13.8789L173.929 13.4336L174.785 4.9375H183.539V6.94141H176.625L176.109 11.582C176.421 11.4023 176.816 11.2344 177.292 11.0781C177.777 10.9219 178.332 10.8438 178.957 10.8438C179.746 10.8438 180.453 10.9805 181.078 11.2539C181.703 11.5195 182.234 11.9023 182.671 12.4023C183.117 12.9023 183.457 13.5039 183.691 14.207C183.925 14.9102 184.042 15.6953 184.042 16.5625C184.042 17.3828 183.929 18.1367 183.703 18.8242C183.484 19.5117 183.152 20.1133 182.707 20.6289C182.261 21.1367 181.699 21.5312 181.019 21.8125C180.347 22.0938 179.554 22.2344 178.64 22.2344C177.953 22.2344 177.3 22.1406 176.683 21.9531C176.074 21.7578 175.527 21.4648 175.042 21.0742C174.566 20.6758 174.175 20.1836 173.871 19.5977C173.574 19.0039 173.386 18.3086 173.308 17.5117H175.371C175.464 18.1523 175.652 18.6914 175.933 19.1289C176.214 19.5664 176.582 19.8984 177.035 20.125C177.496 20.3438 178.031 20.4531 178.64 20.4531C179.156 20.4531 179.613 20.3633 180.011 20.1836C180.41 20.0039 180.746 19.7461 181.019 19.4102C181.292 19.0742 181.5 18.668 181.64 18.1914C181.789 17.7148 181.863 17.1797 181.863 16.5859C181.863 16.0469 181.789 15.5469 181.64 15.0859C181.492 14.625 181.269 14.2227 180.972 13.8789C180.683 13.5352 180.328 13.2695 179.906 13.082C179.484 12.8867 179 12.7891 178.453 12.7891C177.726 12.7891 177.175 12.8867 176.8 13.082C176.433 13.2773 176.054 13.543 175.664 13.8789ZM160.699 32.9375H162.89L168.48 46.8477L174.058 32.9375H176.261L169.324 50H167.613L160.699 32.9375ZM159.984 32.9375H161.917L162.234 43.3438V50H159.984V32.9375ZM175.031 32.9375H176.964V50H174.714V43.3438L175.031 32.9375ZM180.035 43.8008V43.5312C180.035 42.6172 180.167 41.7695 180.433 40.9883C180.699 40.1992 181.082 39.5156 181.582 38.9375C182.082 38.3516 182.687 37.8984 183.398 37.5781C184.109 37.25 184.906 37.0859 185.789 37.0859C186.679 37.0859 187.48 37.25 188.191 37.5781C188.91 37.8984 189.519 38.3516 190.019 38.9375C190.527 39.5156 190.914 40.1992 191.179 40.9883C191.445 41.7695 191.578 42.6172 191.578 43.5312V43.8008C191.578 44.7148 191.445 45.5625 191.179 46.3438C190.914 47.125 190.527 47.8086 190.019 48.3945C189.519 48.9727 188.914 49.4258 188.203 49.7539C187.5 50.0742 186.703 50.2344 185.812 50.2344C184.921 50.2344 184.121 50.0742 183.41 49.7539C182.699 49.4258 182.089 48.9727 181.582 48.3945C181.082 47.8086 180.699 47.125 180.433 46.3438C180.167 45.5625 180.035 44.7148 180.035 43.8008ZM182.203 43.5312V43.8008C182.203 44.4336 182.277 45.0312 182.425 45.5938C182.574 46.1484 182.796 46.6406 183.093 47.0703C183.398 47.5 183.777 47.8398 184.23 48.0898C184.683 48.332 185.21 48.4531 185.812 48.4531C186.406 48.4531 186.925 48.332 187.371 48.0898C187.824 47.8398 188.199 47.5 188.496 47.0703C188.792 46.6406 189.015 46.1484 189.164 45.5938C189.32 45.0312 189.398 44.4336 189.398 43.8008V43.5312C189.398 42.9062 189.32 42.3164 189.164 41.7617C189.015 41.1992 188.789 40.7031 188.484 40.2734C188.187 39.8359 187.812 39.4922 187.359 39.2422C186.914 38.9922 186.39 38.8672 185.789 38.8672C185.195 38.8672 184.671 38.9922 184.218 39.2422C183.773 39.4922 183.398 39.8359 183.093 40.2734C182.796 40.7031 182.574 41.1992 182.425 41.7617C182.277 42.3164 182.203 42.9062 182.203 43.5312ZM196.464 40.0273V50H194.296V37.3203H196.347L196.464 40.0273ZM195.949 43.1797L195.046 43.1445C195.054 42.2773 195.183 41.4766 195.433 40.7422C195.683 40 196.035 39.3555 196.488 38.8086C196.941 38.2617 197.48 37.8398 198.105 37.543C198.738 37.2383 199.437 37.0859 200.203 37.0859C200.828 37.0859 201.39 37.1719 201.89 37.3438C202.39 37.5078 202.816 37.7734 203.167 38.1406C203.527 38.5078 203.8 38.9844 203.988 39.5703C204.175 40.1484 204.269 40.8555 204.269 41.6914V50H202.089V41.668C202.089 41.0039 201.992 40.4727 201.796 40.0742C201.601 39.668 201.316 39.375 200.941 39.1953C200.566 39.0078 200.105 38.9141 199.558 38.9141C199.019 38.9141 198.527 39.0273 198.082 39.2539C197.644 39.4805 197.265 39.793 196.945 40.1914C196.632 40.5898 196.386 41.0469 196.207 41.5625C196.035 42.0703 195.949 42.6094 195.949 43.1797Z" fill="black"/>
<path d="M357.371 34.2473C356.475 34.2473 355.654 34.0446 354.907 33.6393C354.161 33.2339 353.563 32.6046 353.115 31.7513C352.689 30.8766 352.475 29.7566 352.475 28.3913V20.2313C352.475 18.3326 352.955 16.9353 353.915 16.0393C354.875 15.1433 356.049 14.6953 357.435 14.6953C358.822 14.6953 359.974 15.1539 360.891 16.0713C361.83 16.9673 362.299 18.3539 362.299 20.2313V28.3913C362.299 29.7779 362.086 30.9086 361.659 31.7833C361.233 32.6366 360.646 33.2659 359.899 33.6713C359.153 34.0553 358.31 34.2473 357.371 34.2473ZM357.403 32.9993C358.235 32.9993 358.918 32.6686 359.451 32.0073C360.006 31.3459 360.283 30.4073 360.283 29.1913V19.7833C360.283 18.5673 360.006 17.6286 359.451 16.9673C358.897 16.3059 358.214 15.9753 357.403 15.9753C356.571 15.9753 355.878 16.3059 355.323 16.9673C354.769 17.6286 354.491 18.5673 354.491 19.7833V29.1913C354.491 30.4073 354.769 31.3459 355.323 32.0073C355.878 32.6686 356.571 32.9993 357.403 32.9993ZM367.465 33.8633V17.7993H364.425V16.6473L366.025 16.6153C366.558 16.5939 366.942 16.4659 367.177 16.2313C367.433 15.9966 367.635 15.5699 367.785 14.9513H369.481V33.8633H367.465Z" fill="black"/>
<path d="M316.132 12.1094V14.7109C316.132 16.1094 316.007 17.2891 315.757 18.25C315.507 19.2109 315.148 19.9844 314.679 20.5703C314.21 21.1562 313.644 21.582 312.98 21.8477C312.324 22.1055 311.582 22.2344 310.753 22.2344C310.097 22.2344 309.492 22.1523 308.937 21.9883C308.382 21.8242 307.882 21.5625 307.437 21.2031C307 20.8359 306.625 20.3594 306.312 19.7734C306 19.1875 305.761 18.4766 305.597 17.6406C305.433 16.8047 305.351 15.8281 305.351 14.7109V12.1094C305.351 10.7109 305.476 9.53906 305.726 8.59375C305.984 7.64844 306.347 6.89063 306.816 6.32031C307.285 5.74219 307.847 5.32812 308.503 5.07812C309.167 4.82813 309.91 4.70312 310.73 4.70312C311.394 4.70312 312.003 4.78516 312.558 4.94922C313.121 5.10547 313.621 5.35938 314.058 5.71094C314.496 6.05469 314.867 6.51563 315.171 7.09375C315.484 7.66406 315.722 8.36328 315.886 9.19141C316.05 10.0195 316.132 10.9922 316.132 12.1094ZM313.953 15.0625V11.7461C313.953 10.9805 313.906 10.3086 313.812 9.73047C313.726 9.14453 313.597 8.64453 313.425 8.23047C313.253 7.81641 313.035 7.48047 312.769 7.22266C312.511 6.96484 312.21 6.77734 311.867 6.66016C311.531 6.53516 311.152 6.47266 310.73 6.47266C310.214 6.47266 309.757 6.57031 309.359 6.76562C308.96 6.95312 308.625 7.25391 308.351 7.66797C308.085 8.08203 307.882 8.625 307.742 9.29688C307.601 9.96875 307.531 10.7852 307.531 11.7461V15.0625C307.531 15.8281 307.574 16.5039 307.66 17.0898C307.753 17.6758 307.89 18.1836 308.07 18.6133C308.25 19.0352 308.468 19.3828 308.726 19.6562C308.984 19.9297 309.281 20.1328 309.617 20.2656C309.96 20.3906 310.339 20.4531 310.753 20.4531C311.285 20.4531 311.75 20.3516 312.148 20.1484C312.546 19.9453 312.878 19.6289 313.144 19.1992C313.417 18.7617 313.621 18.2031 313.753 17.5234C313.886 16.8359 313.953 16.0156 313.953 15.0625ZM321.664 13.8789L319.929 13.4336L320.785 4.9375H329.539V6.94141H322.625L322.109 11.582C322.421 11.4023 322.816 11.2344 323.292 11.0781C323.777 10.9219 324.332 10.8438 324.957 10.8438C325.746 10.8438 326.453 10.9805 327.078 11.2539C327.703 11.5195 328.234 11.9023 328.671 12.4023C329.117 12.9023 329.457 13.5039 329.691 14.207C329.925 14.9102 330.042 15.6953 330.042 16.5625C330.042 17.3828 329.929 18.1367 329.703 18.8242C329.484 19.5117 329.152 20.1133 328.707 20.6289C328.261 21.1367 327.699 21.5312 327.019 21.8125C326.347 22.0938 325.554 22.2344 324.64 22.2344C323.953 22.2344 323.3 22.1406 322.683 21.9531C322.074 21.7578 321.527 21.4648 321.042 21.0742C320.566 20.6758 320.175 20.1836 319.871 19.5977C319.574 19.0039 319.386 18.3086 319.308 17.5117H321.371C321.464 18.1523 321.652 18.6914 321.933 19.1289C322.214 19.5664 322.582 19.8984 323.035 20.125C323.496 20.3438 324.031 20.4531 324.64 20.4531C325.156 20.4531 325.613 20.3633 326.011 20.1836C326.41 20.0039 326.746 19.7461 327.019 19.4102C327.292 19.0742 327.5 18.668 327.64 18.1914C327.789 17.7148 327.863 17.1797 327.863 16.5859C327.863 16.0469 327.789 15.5469 327.64 15.0859C327.492 14.625 327.269 14.2227 326.972 13.8789C326.683 13.5352 326.328 13.2695 325.906 13.082C325.484 12.8867 325 12.7891 324.453 12.7891C323.726 12.7891 323.175 12.8867 322.8 13.082C322.433 13.2773 322.054 13.543 321.664 13.8789ZM312.289 32.9375V50H310.062V32.9375H312.289ZM317.773 32.9375V34.7891H304.589V32.9375H317.773ZM326.609 47.0703V37.3203H328.789V50H326.714L326.609 47.0703ZM327.019 44.3984L327.921 44.375C327.921 45.2188 327.832 46 327.652 46.7188C327.48 47.4297 327.199 48.0469 326.808 48.5703C326.417 49.0938 325.906 49.5039 325.273 49.8008C324.64 50.0898 323.871 50.2344 322.964 50.2344C322.347 50.2344 321.781 50.1445 321.265 49.9648C320.757 49.7852 320.32 49.5078 319.953 49.1328C319.585 48.7578 319.3 48.2695 319.097 47.668C318.902 47.0664 318.804 46.3438 318.804 45.5V37.3203H320.972V45.5234C320.972 46.0938 321.035 46.5664 321.16 46.9414C321.292 47.3086 321.468 47.6016 321.687 47.8203C321.914 48.0312 322.164 48.1797 322.437 48.2656C322.718 48.3516 323.007 48.3945 323.304 48.3945C324.226 48.3945 324.957 48.2188 325.496 47.8672C326.035 47.5078 326.421 47.0273 326.656 46.4258C326.898 45.8164 327.019 45.1406 327.019 44.3984ZM337.355 50.2344C336.472 50.2344 335.671 50.0859 334.953 49.7891C334.242 49.4844 333.628 49.0586 333.113 48.5117C332.605 47.9648 332.214 47.3164 331.941 46.5664C331.667 45.8164 331.531 44.9961 331.531 44.1055V43.6133C331.531 42.582 331.683 41.6641 331.988 40.8594C332.292 40.0469 332.707 39.3594 333.23 38.7969C333.753 38.2344 334.347 37.8086 335.011 37.5195C335.675 37.2305 336.363 37.0859 337.074 37.0859C337.98 37.0859 338.761 37.2422 339.417 37.5547C340.082 37.8672 340.625 38.3047 341.046 38.8672C341.468 39.4219 341.781 40.0781 341.984 40.8359C342.187 41.5859 342.289 42.4062 342.289 43.2969V44.2695H332.82V42.5H340.121V42.3359C340.089 41.7734 339.972 41.2266 339.769 40.6953C339.574 40.1641 339.261 39.7266 338.832 39.3828C338.402 39.0391 337.816 38.8672 337.074 38.8672C336.582 38.8672 336.128 38.9727 335.714 39.1836C335.3 39.3867 334.945 39.6914 334.648 40.0977C334.351 40.5039 334.121 41 333.957 41.5859C333.792 42.1719 333.71 42.8477 333.71 43.6133V44.1055C333.71 44.707 333.792 45.2734 333.957 45.8047C334.128 46.3281 334.375 46.7891 334.695 47.1875C335.023 47.5859 335.417 47.8984 335.878 48.125C336.347 48.3516 336.878 48.4648 337.472 48.4648C338.238 48.4648 338.886 48.3086 339.417 47.9961C339.949 47.6836 340.414 47.2656 340.812 46.7422L342.125 47.7852C341.851 48.1992 341.503 48.5938 341.082 48.9688C340.66 49.3438 340.14 49.6484 339.523 49.8828C338.914 50.1172 338.191 50.2344 337.355 50.2344Z" fill="black"/>
<path d="M504.372 34.2473C503.476 34.2473 502.655 34.0446 501.908 33.6393C501.161 33.2339 500.564 32.6046 500.116 31.7513C499.689 30.8766 499.476 29.7566 499.476 28.3913V20.2313C499.476 18.3326 499.956 16.9353 500.916 16.0393C501.876 15.1433 503.049 14.6953 504.436 14.6953C505.823 14.6953 506.975 15.1539 507.892 16.0713C508.831 16.9673 509.3 18.3539 509.3 20.2313V28.3913C509.3 29.7779 509.087 30.9086 508.66 31.7833C508.233 32.6366 507.647 33.2659 506.9 33.6713C506.153 34.0553 505.311 34.2473 504.372 34.2473ZM504.404 32.9993C505.236 32.9993 505.919 32.6686 506.452 32.0073C507.007 31.3459 507.284 30.4073 507.284 29.1913V19.7833C507.284 18.5673 507.007 17.6286 506.452 16.9673C505.897 16.3059 505.215 15.9753 504.404 15.9753C503.572 15.9753 502.879 16.3059 502.324 16.9673C501.769 17.6286 501.492 18.5673 501.492 19.7833V29.1913C501.492 30.4073 501.769 31.3459 502.324 32.0073C502.879 32.6686 503.572 32.9993 504.404 32.9993ZM512.129 33.8633C512.129 33.2659 512.129 32.6686 512.129 32.0713C512.129 31.4739 512.129 30.8659 512.129 30.2473C512.129 29.1806 512.278 28.3379 512.577 27.7193C512.897 27.0793 513.356 26.5566 513.953 26.1513C514.55 25.7459 515.276 25.3299 516.129 24.9033C516.876 24.5619 517.494 24.1673 517.985 23.7193C518.497 23.2713 518.892 22.7273 519.169 22.0873C519.468 21.4259 519.617 20.6366 519.617 19.7193C519.638 18.6313 519.425 17.7993 518.977 17.2233C518.55 16.6473 517.846 16.3593 516.865 16.3593C515.99 16.3593 515.308 16.6366 514.817 17.1913C514.348 17.7459 514.113 18.5993 514.113 19.7513V21.3193H512.097V19.3353C512.097 17.8206 512.513 16.7006 513.345 15.9753C514.177 15.2286 515.361 14.8553 516.897 14.8553C518.092 14.8553 519.041 15.0366 519.745 15.3993C520.449 15.7619 520.95 16.3166 521.249 17.0633C521.569 17.7886 521.729 18.7166 521.729 19.8473C521.729 21.2553 521.43 22.4606 520.833 23.4633C520.257 24.4446 519.382 25.2446 518.209 25.8633C517.569 26.1619 516.972 26.4713 516.417 26.7913C515.884 27.1113 515.425 27.5059 515.041 27.9753C514.678 28.4233 514.465 29.0099 514.401 29.7353C514.337 30.0979 514.284 30.4819 514.241 30.8873C514.22 31.2926 514.209 31.7193 514.209 32.1673H521.889V33.8633H512.129Z" fill="black"/>
<path d="M463.132 12.1094V14.7109C463.132 16.1094 463.007 17.2891 462.757 18.25C462.507 19.2109 462.148 19.9844 461.679 20.5703C461.21 21.1562 460.644 21.582 459.98 21.8477C459.324 22.1055 458.582 22.2344 457.753 22.2344C457.097 22.2344 456.492 22.1523 455.937 21.9883C455.382 21.8242 454.882 21.5625 454.437 21.2031C454 20.8359 453.625 20.3594 453.312 19.7734C453 19.1875 452.761 18.4766 452.597 17.6406C452.433 16.8047 452.351 15.8281 452.351 14.7109V12.1094C452.351 10.7109 452.476 9.53906 452.726 8.59375C452.984 7.64844 453.347 6.89063 453.816 6.32031C454.285 5.74219 454.847 5.32812 455.503 5.07812C456.167 4.82813 456.91 4.70312 457.73 4.70312C458.394 4.70312 459.003 4.78516 459.558 4.94922C460.121 5.10547 460.621 5.35938 461.058 5.71094C461.496 6.05469 461.867 6.51563 462.171 7.09375C462.484 7.66406 462.722 8.36328 462.886 9.19141C463.05 10.0195 463.132 10.9922 463.132 12.1094ZM460.953 15.0625V11.7461C460.953 10.9805 460.906 10.3086 460.812 9.73047C460.726 9.14453 460.597 8.64453 460.425 8.23047C460.253 7.81641 460.035 7.48047 459.769 7.22266C459.511 6.96484 459.21 6.77734 458.867 6.66016C458.531 6.53516 458.152 6.47266 457.73 6.47266C457.214 6.47266 456.757 6.57031 456.359 6.76562C455.96 6.95312 455.625 7.25391 455.351 7.66797C455.085 8.08203 454.882 8.625 454.742 9.29688C454.601 9.96875 454.531 10.7852 454.531 11.7461V15.0625C454.531 15.8281 454.574 16.5039 454.66 17.0898C454.753 17.6758 454.89 18.1836 455.07 18.6133C455.25 19.0352 455.468 19.3828 455.726 19.6562C455.984 19.9297 456.281 20.1328 456.617 20.2656C456.96 20.3906 457.339 20.4531 457.753 20.4531C458.285 20.4531 458.75 20.3516 459.148 20.1484C459.546 19.9453 459.878 19.6289 460.144 19.1992C460.417 18.7617 460.621 18.2031 460.753 17.5234C460.886 16.8359 460.953 16.0156 460.953 15.0625ZM468.664 13.8789L466.929 13.4336L467.785 4.9375H476.539V6.94141H469.625L469.109 11.582C469.421 11.4023 469.816 11.2344 470.292 11.0781C470.777 10.9219 471.332 10.8438 471.957 10.8438C472.746 10.8438 473.453 10.9805 474.078 11.2539C474.703 11.5195 475.234 11.9023 475.671 12.4023C476.117 12.9023 476.457 13.5039 476.691 14.207C476.925 14.9102 477.042 15.6953 477.042 16.5625C477.042 17.3828 476.929 18.1367 476.703 18.8242C476.484 19.5117 476.152 20.1133 475.707 20.6289C475.261 21.1367 474.699 21.5312 474.019 21.8125C473.347 22.0938 472.554 22.2344 471.64 22.2344C470.953 22.2344 470.3 22.1406 469.683 21.9531C469.074 21.7578 468.527 21.4648 468.042 21.0742C467.566 20.6758 467.175 20.1836 466.871 19.5977C466.574 19.0039 466.386 18.3086 466.308 17.5117H468.371C468.464 18.1523 468.652 18.6914 468.933 19.1289C469.214 19.5664 469.582 19.8984 470.035 20.125C470.496 20.3438 471.031 20.4531 471.64 20.4531C472.156 20.4531 472.613 20.3633 473.011 20.1836C473.41 20.0039 473.746 19.7461 474.019 19.4102C474.292 19.0742 474.5 18.668 474.64 18.1914C474.789 17.7148 474.863 17.1797 474.863 16.5859C474.863 16.0469 474.789 15.5469 474.64 15.0859C474.492 14.625 474.269 14.2227 473.972 13.8789C473.683 13.5352 473.328 13.2695 472.906 13.082C472.484 12.8867 472 12.7891 471.453 12.7891C470.726 12.7891 470.175 12.8867 469.8 13.082C469.433 13.2773 469.054 13.543 468.664 13.8789ZM459.289 32.9375V50H457.062V32.9375H459.289ZM464.773 32.9375V34.7891H451.589V32.9375H464.773ZM469.144 32V50H466.976V32H469.144ZM468.628 43.1797L467.726 43.1445C467.734 42.2773 467.863 41.4766 468.113 40.7422C468.363 40 468.714 39.3555 469.167 38.8086C469.621 38.2617 470.16 37.8398 470.785 37.543C471.417 37.2383 472.117 37.0859 472.882 37.0859C473.507 37.0859 474.07 37.1719 474.57 37.3438C475.07 37.5078 475.496 37.7734 475.847 38.1406C476.207 38.5078 476.48 38.9844 476.667 39.5703C476.855 40.1484 476.949 40.8555 476.949 41.6914V50H474.769V41.668C474.769 41.0039 474.671 40.4727 474.476 40.0742C474.281 39.668 473.996 39.375 473.621 39.1953C473.246 39.0078 472.785 38.9141 472.238 38.9141C471.699 38.9141 471.207 39.0273 470.761 39.2539C470.324 39.4805 469.945 39.793 469.625 40.1914C469.312 40.5898 469.066 41.0469 468.886 41.5625C468.714 42.0703 468.628 42.6094 468.628 43.1797ZM487.953 47.0703V37.3203H490.132V50H488.058L487.953 47.0703ZM488.363 44.3984L489.265 44.375C489.265 45.2188 489.175 46 488.996 46.7188C488.824 47.4297 488.542 48.0469 488.152 48.5703C487.761 49.0938 487.25 49.5039 486.617 49.8008C485.984 50.0898 485.214 50.2344 484.308 50.2344C483.691 50.2344 483.125 50.1445 482.609 49.9648C482.101 49.7852 481.664 49.5078 481.296 49.1328C480.929 48.7578 480.644 48.2695 480.441 47.668C480.246 47.0664 480.148 46.3438 480.148 45.5V37.3203H482.316V45.5234C482.316 46.0938 482.378 46.5664 482.503 46.9414C482.636 47.3086 482.812 47.6016 483.031 47.8203C483.257 48.0312 483.507 48.1797 483.781 48.2656C484.062 48.3516 484.351 48.3945 484.648 48.3945C485.57 48.3945 486.3 48.2188 486.839 47.8672C487.378 47.5078 487.765 47.0273 488 46.4258C488.242 45.8164 488.363 45.1406 488.363 44.3984Z" fill="black"/>
</svg>
