<svg width="93" height="52" viewBox="0 0 93 52" fill="none" xmlns="http://www.w3.org/2000/svg">
<path d="M48.8879 33.8633C48.8879 33.2659 48.8879 32.6686 48.8879 32.0713C48.8879 31.4739 48.8879 30.8659 48.8879 30.2473C48.8879 29.1806 49.0373 28.3379 49.3359 27.7193C49.6559 27.0793 50.1146 26.5566 50.7119 26.1513C51.3093 25.7459 52.0346 25.3299 52.8879 24.9033C53.6346 24.5619 54.2533 24.1673 54.7439 23.7193C55.2559 23.2713 55.6506 22.7273 55.9279 22.0873C56.2266 21.4259 56.3759 20.6366 56.3759 19.7193C56.3973 18.6313 56.1839 17.7993 55.7359 17.2233C55.3093 16.6473 54.6053 16.3593 53.6239 16.3593C52.7493 16.3593 52.0666 16.6366 51.5759 17.1913C51.1066 17.7459 50.8719 18.5993 50.8719 19.7513V21.3193H48.8559V19.3353C48.8559 17.8206 49.2719 16.7006 50.1039 15.9753C50.9359 15.2286 52.1199 14.8553 53.6559 14.8553C54.8506 14.8553 55.7999 15.0366 56.5039 15.3993C57.2079 15.7619 57.7093 16.3166 58.0079 17.0633C58.3279 17.7886 58.4879 18.7166 58.4879 19.8473C58.4879 21.2553 58.1893 22.4606 57.5919 23.4633C57.0159 24.4446 56.1413 25.2446 54.9679 25.8633C54.3279 26.1619 53.7306 26.4713 53.1759 26.7913C52.6426 27.1113 52.1839 27.5059 51.7999 27.9753C51.4373 28.4233 51.2239 29.0099 51.1599 29.7353C51.0959 30.0979 51.0426 30.4819 50.9999 30.8873C50.9786 31.2926 50.9679 31.7193 50.9679 32.1673H58.6479V33.8633H48.8879ZM65.8152 34.1513C64.3005 34.1513 63.1272 33.7886 62.2952 33.0633C61.4845 32.3379 61.0792 31.2073 61.0792 29.6713V28.2633H63.0952V29.9273C63.0952 30.9299 63.3299 31.6659 63.7992 32.1353C64.2899 32.5833 64.9512 32.8073 65.7832 32.8073C66.7005 32.8073 67.4152 32.5299 67.9272 31.9753C68.4605 31.3993 68.7272 30.6846 68.7272 29.8313V24.9993C68.3432 25.5753 67.8312 26.0233 67.1912 26.3433C66.5725 26.6419 65.8792 26.7913 65.1112 26.7913C64.3219 26.7913 63.6072 26.6206 62.9672 26.2793C62.3272 25.9379 61.8152 25.4366 61.4312 24.7753C61.0685 24.1139 60.8872 23.2926 60.8872 22.3113V19.5913C60.8872 18.6739 61.0579 17.8633 61.3992 17.1593C61.7619 16.4339 62.3059 15.8686 63.0312 15.4633C63.7779 15.0579 64.7272 14.8553 65.8792 14.8553C67.0312 14.8553 67.9592 15.0579 68.6632 15.4633C69.3885 15.8686 69.9112 16.4446 70.2312 17.1913C70.5725 17.9166 70.7432 18.7806 70.7432 19.7833V29.5433C70.7432 31.0366 70.2952 32.1779 69.3992 32.9673C68.5032 33.7566 67.3085 34.1513 65.8152 34.1513ZM65.8472 25.4473C66.6579 25.4473 67.3299 25.2019 67.8632 24.7113C68.4179 24.2206 68.7059 23.5699 68.7272 22.7593V19.3353C68.7272 18.2899 68.4712 17.5006 67.9592 16.9673C67.4472 16.4339 66.7432 16.1566 65.8472 16.1353C64.9939 16.1353 64.2899 16.4019 63.7352 16.9353C63.1805 17.4473 62.9032 18.2473 62.9032 19.3353V22.5033C62.9032 23.4633 63.1912 24.1886 63.7672 24.6793C64.3432 25.1486 65.0365 25.4046 65.8472 25.4473Z" fill="black"/>
<path d="M12.7764 12.1094V14.7109C12.7764 16.1094 12.6514 17.2891 12.4014 18.25C12.1514 19.2109 11.792 19.9844 11.3232 20.5703C10.8545 21.1562 10.2881 21.582 9.62402 21.8477C8.96777 22.1055 8.22559 22.2344 7.39746 22.2344C6.74121 22.2344 6.13574 22.1523 5.58105 21.9883C5.02637 21.8242 4.52637 21.5625 4.08105 21.2031C3.64355 20.8359 3.26855 20.3594 2.95605 19.7734C2.64355 19.1875 2.40527 18.4766 2.24121 17.6406C2.07715 16.8047 1.99512 15.8281 1.99512 14.7109V12.1094C1.99512 10.7109 2.12012 9.53906 2.37012 8.59375C2.62793 7.64844 2.99121 6.89063 3.45996 6.32031C3.92871 5.74219 4.49121 5.32812 5.14746 5.07812C5.81152 4.82813 6.55371 4.70312 7.37402 4.70312C8.03809 4.70312 8.64746 4.78516 9.20215 4.94922C9.76465 5.10547 10.2646 5.35938 10.7021 5.71094C11.1396 6.05469 11.5107 6.51563 11.8154 7.09375C12.1279 7.66406 12.3662 8.36328 12.5303 9.19141C12.6943 10.0195 12.7764 10.9922 12.7764 12.1094ZM10.5967 15.0625V11.7461C10.5967 10.9805 10.5498 10.3086 10.4561 9.73047C10.3701 9.14453 10.2412 8.64453 10.0693 8.23047C9.89746 7.81641 9.67871 7.48047 9.41309 7.22266C9.15527 6.96484 8.85449 6.77734 8.51074 6.66016C8.1748 6.53516 7.7959 6.47266 7.37402 6.47266C6.8584 6.47266 6.40137 6.57031 6.00293 6.76562C5.60449 6.95312 5.26855 7.25391 4.99512 7.66797C4.72949 8.08203 4.52637 8.625 4.38574 9.29688C4.24512 9.96875 4.1748 10.7852 4.1748 11.7461V15.0625C4.1748 15.8281 4.21777 16.5039 4.30371 17.0898C4.39746 17.6758 4.53418 18.1836 4.71387 18.6133C4.89355 19.0352 5.1123 19.3828 5.37012 19.6562C5.62793 19.9297 5.9248 20.1328 6.26074 20.2656C6.60449 20.3906 6.9834 20.4531 7.39746 20.4531C7.92871 20.4531 8.39355 20.3516 8.79199 20.1484C9.19043 19.9453 9.52246 19.6289 9.78809 19.1992C10.0615 18.7617 10.2646 18.2031 10.3975 17.5234C10.5303 16.8359 10.5967 16.0156 10.5967 15.0625ZM18.3076 13.8789L16.5732 13.4336L17.4287 4.9375H26.1826V6.94141H19.2686L18.7529 11.582C19.0654 11.4023 19.46 11.2344 19.9365 11.0781C20.4209 10.9219 20.9756 10.8438 21.6006 10.8438C22.3896 10.8438 23.0967 10.9805 23.7217 11.2539C24.3467 11.5195 24.8779 11.9023 25.3154 12.4023C25.7607 12.9023 26.1006 13.5039 26.335 14.207C26.5693 14.9102 26.6865 15.6953 26.6865 16.5625C26.6865 17.3828 26.5732 18.1367 26.3467 18.8242C26.1279 19.5117 25.7959 20.1133 25.3506 20.6289C24.9053 21.1367 24.3428 21.5312 23.6631 21.8125C22.9912 22.0938 22.1982 22.2344 21.2842 22.2344C20.5967 22.2344 19.9443 22.1406 19.3271 21.9531C18.7178 21.7578 18.1709 21.4648 17.6865 21.0742C17.21 20.6758 16.8193 20.1836 16.5146 19.5977C16.2178 19.0039 16.0303 18.3086 15.9521 17.5117H18.0146C18.1084 18.1523 18.2959 18.6914 18.5771 19.1289C18.8584 19.5664 19.2256 19.8984 19.6787 20.125C20.1396 20.3438 20.6748 20.4531 21.2842 20.4531C21.7998 20.4531 22.2568 20.3633 22.6553 20.1836C23.0537 20.0039 23.3896 19.7461 23.6631 19.4102C23.9365 19.0742 24.1436 18.668 24.2842 18.1914C24.4326 17.7148 24.5068 17.1797 24.5068 16.5859C24.5068 16.0469 24.4326 15.5469 24.2842 15.0859C24.1357 14.625 23.9131 14.2227 23.6162 13.8789C23.3271 13.5352 22.9717 13.2695 22.5498 13.082C22.1279 12.8867 21.6436 12.7891 21.0967 12.7891C20.3701 12.7891 19.8193 12.8867 19.4443 13.082C19.0771 13.2773 18.6982 13.543 18.3076 13.8789ZM11.7217 45.6875C11.7217 45.2891 11.6592 44.9375 11.5342 44.6328C11.417 44.3203 11.2061 44.0391 10.9014 43.7891C10.6045 43.5391 10.1904 43.3008 9.65918 43.0742C9.13574 42.8477 8.47168 42.6172 7.66699 42.3828C6.82324 42.1328 6.06152 41.8555 5.38184 41.5508C4.70215 41.2383 4.12012 40.8828 3.63574 40.4844C3.15137 40.0859 2.78027 39.6289 2.52246 39.1133C2.26465 38.5977 2.13574 38.0078 2.13574 37.3438C2.13574 36.6797 2.27246 36.0664 2.5459 35.5039C2.81934 34.9414 3.20996 34.4531 3.71777 34.0391C4.2334 33.6172 4.84668 33.2891 5.55762 33.0547C6.26855 32.8203 7.06152 32.7031 7.93652 32.7031C9.21777 32.7031 10.3037 32.9492 11.1943 33.4414C12.0928 33.9258 12.7764 34.5625 13.2451 35.3516C13.7139 36.1328 13.9482 36.9688 13.9482 37.8594H11.6982C11.6982 37.2188 11.5615 36.6523 11.2881 36.1602C11.0146 35.6602 10.6006 35.2695 10.0459 34.9883C9.49121 34.6992 8.78809 34.5547 7.93652 34.5547C7.13184 34.5547 6.46777 34.6758 5.94434 34.918C5.4209 35.1602 5.03027 35.4883 4.77246 35.9023C4.52246 36.3164 4.39746 36.7891 4.39746 37.3203C4.39746 37.6797 4.47168 38.0078 4.62012 38.3047C4.77637 38.5938 5.01465 38.8633 5.33496 39.1133C5.66309 39.3633 6.07715 39.5938 6.57715 39.8047C7.08496 40.0156 7.69043 40.2188 8.39355 40.4141C9.3623 40.6875 10.1982 40.9922 10.9014 41.3281C11.6045 41.6641 12.1826 42.043 12.6357 42.4648C13.0967 42.8789 13.4365 43.3516 13.6553 43.8828C13.8818 44.4062 13.9951 45 13.9951 45.6641C13.9951 46.3594 13.8545 46.9883 13.5732 47.5508C13.292 48.1133 12.8896 48.5938 12.3662 48.9922C11.8428 49.3906 11.2139 49.6992 10.4795 49.918C9.75293 50.1289 8.94043 50.2344 8.04199 50.2344C7.25293 50.2344 6.47559 50.125 5.70996 49.9062C4.95215 49.6875 4.26074 49.3594 3.63574 48.9219C3.01855 48.4844 2.52246 47.9453 2.14746 47.3047C1.78027 46.6562 1.59668 45.9062 1.59668 45.0547H3.84668C3.84668 45.6406 3.95996 46.1445 4.18652 46.5664C4.41309 46.9805 4.72168 47.3242 5.1123 47.5977C5.51074 47.8711 5.95996 48.0742 6.45996 48.207C6.96777 48.332 7.49512 48.3945 8.04199 48.3945C8.83105 48.3945 9.49902 48.2852 10.0459 48.0664C10.5928 47.8477 11.0068 47.5352 11.2881 47.1289C11.5771 46.7227 11.7217 46.2422 11.7217 45.6875ZM24.0264 47.832V41.3047C24.0264 40.8047 23.9248 40.3711 23.7217 40.0039C23.5264 39.6289 23.2295 39.3398 22.8311 39.1367C22.4326 38.9336 21.9404 38.832 21.3545 38.832C20.8076 38.832 20.3271 38.9258 19.9131 39.1133C19.5068 39.3008 19.1865 39.5469 18.9521 39.8516C18.7256 40.1562 18.6123 40.4844 18.6123 40.8359H16.4443C16.4443 40.3828 16.5615 39.9336 16.7959 39.4883C17.0303 39.043 17.3662 38.6406 17.8037 38.2812C18.249 37.9141 18.7803 37.625 19.3975 37.4141C20.0225 37.1953 20.7178 37.0859 21.4834 37.0859C22.4053 37.0859 23.2178 37.2422 23.9209 37.5547C24.6318 37.8672 25.1865 38.3398 25.585 38.9727C25.9912 39.5977 26.1943 40.3828 26.1943 41.3281V47.2344C26.1943 47.6562 26.2295 48.1055 26.2998 48.582C26.3779 49.0586 26.4912 49.4688 26.6396 49.8125V50H24.3779C24.2686 49.75 24.1826 49.418 24.1201 49.0039C24.0576 48.582 24.0264 48.1914 24.0264 47.832ZM24.4014 42.3125L24.4248 43.8359H22.2334C21.6162 43.8359 21.0654 43.8867 20.5811 43.9883C20.0967 44.082 19.6904 44.2266 19.3623 44.4219C19.0342 44.6172 18.7842 44.8633 18.6123 45.1602C18.4404 45.4492 18.3545 45.7891 18.3545 46.1797C18.3545 46.5781 18.4443 46.9414 18.624 47.2695C18.8037 47.5977 19.0732 47.8594 19.4326 48.0547C19.7998 48.2422 20.249 48.3359 20.7803 48.3359C21.4443 48.3359 22.0303 48.1953 22.5381 47.9141C23.0459 47.6328 23.4482 47.2891 23.7451 46.8828C24.0498 46.4766 24.2139 46.082 24.2373 45.6992L25.1631 46.7422C25.1084 47.0703 24.96 47.4336 24.7178 47.832C24.4756 48.2305 24.1514 48.6133 23.7451 48.9805C23.3467 49.3398 22.8701 49.6406 22.3154 49.8828C21.7686 50.1172 21.1514 50.2344 20.4639 50.2344C19.6045 50.2344 18.8506 50.0664 18.2021 49.7305C17.5615 49.3945 17.0615 48.9453 16.7021 48.3828C16.3506 47.8125 16.1748 47.1758 16.1748 46.4727C16.1748 45.793 16.3076 45.1953 16.5732 44.6797C16.8389 44.1562 17.2217 43.7227 17.7217 43.3789C18.2217 43.0273 18.8232 42.7617 19.5264 42.582C20.2295 42.4023 21.0146 42.3125 21.8818 42.3125H24.4014ZM34.9131 37.3203V38.9844H28.0576V37.3203H34.9131ZM30.3779 34.2383H32.5459V46.8594C32.5459 47.2891 32.6123 47.6133 32.7451 47.832C32.8779 48.0508 33.0498 48.1953 33.2607 48.2656C33.4717 48.3359 33.6982 48.3711 33.9404 48.3711C34.1201 48.3711 34.3076 48.3555 34.5029 48.3242C34.7061 48.2852 34.8584 48.2539 34.96 48.2305L34.9717 50C34.7998 50.0547 34.5732 50.1055 34.292 50.1523C34.0186 50.207 33.6865 50.2344 33.2959 50.2344C32.7646 50.2344 32.2764 50.1289 31.8311 49.918C31.3857 49.707 31.0303 49.3555 30.7646 48.8633C30.5068 48.3633 30.3779 47.6914 30.3779 46.8477V34.2383Z" fill="black"/>
</svg>
