<svg width="50" height="50" viewBox="0 0 50 50" fill="none" xmlns="http://www.w3.org/2000/svg">
<path d="M25.0003 4.16699C13.4941 4.16699 4.16699 13.4941 4.16699 25.0003C4.16699 36.5066 13.4941 45.8337 25.0003 45.8337C36.5066 45.8337 45.8337 36.5066 45.8337 25.0003C45.8337 13.4941 36.5066 4.16699 25.0003 4.16699Z" fill="url(#paint0_linear_341_179)"/>
<path d="M27.8201 30.5217H33.2118L34.0587 25.0447H27.8201V22.0509C27.8201 19.7759 28.5639 17.7582 30.692 17.7582H34.1118V12.979C33.5107 12.8978 32.2399 12.7207 29.8389 12.7207C24.8243 12.7207 21.8847 15.3686 21.8847 21.402V25.0457H16.7295V30.5228H21.8837V45.577C22.9045 45.729 23.9389 45.8332 25.0003 45.8332C25.9597 45.8332 26.8962 45.7457 27.8201 45.6207V30.5217Z" fill="white"/>
<defs>
<linearGradient id="paint0_linear_341_179" x1="10.4097" y1="10.4097" x2="42.3076" y2="42.3076" gradientUnits="userSpaceOnUse">
<stop stop-color="#2AA4F4"/>
<stop offset="1" stop-color="#007AD9"/>
</linearGradient>
</defs>
</svg>
