<svg width="50" height="50" viewBox="0 0 50 50" fill="none" xmlns="http://www.w3.org/2000/svg">
<path d="M35.4341 43.7393L14.6007 43.759C10.0174 43.7632 6.26426 40.0174 6.25905 35.4341L6.23926 14.6007C6.23509 10.0174 9.98093 6.26426 14.5643 6.25905L35.3976 6.23926C39.9809 6.23509 43.7341 9.98093 43.7393 14.5643L43.759 35.3976C43.7643 39.982 40.0174 43.7351 35.4341 43.7393Z" fill="url(#paint0_radial_341_182)"/>
<path d="M35.4341 43.7393L14.6007 43.759C10.0174 43.7632 6.26426 40.0174 6.25905 35.4341L6.23926 14.6007C6.23509 10.0174 9.98093 6.26426 14.5643 6.25905L35.3976 6.23926C39.9809 6.23509 43.7341 9.98093 43.7393 14.5643L43.759 35.3976C43.7643 39.982 40.0174 43.7351 35.4341 43.7393Z" fill="url(#paint1_radial_341_182)"/>
<path d="M24.9997 32.2913C20.9799 32.2913 17.708 29.0205 17.708 24.9997C17.708 20.9788 20.9799 17.708 24.9997 17.708C29.0195 17.708 32.2913 20.9788 32.2913 24.9997C32.2913 29.0205 29.0195 32.2913 24.9997 32.2913ZM24.9997 19.7913C22.1278 19.7913 19.7913 22.1278 19.7913 24.9997C19.7913 27.8715 22.1278 30.208 24.9997 30.208C27.8715 30.208 30.208 27.8715 30.208 24.9997C30.208 22.1278 27.8715 19.7913 24.9997 19.7913Z" fill="white"/>
<path d="M32.8125 18.75C33.6754 18.75 34.375 18.0504 34.375 17.1875C34.375 16.3246 33.6754 15.625 32.8125 15.625C31.9496 15.625 31.25 16.3246 31.25 17.1875C31.25 18.0504 31.9496 18.75 32.8125 18.75Z" fill="white"/>
<path d="M31.2497 38.5413H18.7497C14.7299 38.5413 11.458 35.2705 11.458 31.2497V18.7497C11.458 14.7288 14.7299 11.458 18.7497 11.458H31.2497C35.2695 11.458 38.5413 14.7288 38.5413 18.7497V31.2497C38.5413 35.2705 35.2695 38.5413 31.2497 38.5413ZM18.7497 13.5413C15.8778 13.5413 13.5413 15.8778 13.5413 18.7497V31.2497C13.5413 34.1215 15.8778 36.458 18.7497 36.458H31.2497C34.1215 36.458 36.458 34.1215 36.458 31.2497V18.7497C36.458 15.8778 34.1215 13.5413 31.2497 13.5413H18.7497Z" fill="white"/>
<defs>
<radialGradient id="paint0_radial_341_182" cx="0" cy="0" r="1" gradientUnits="userSpaceOnUse" gradientTransform="translate(20.1872 43.7861) scale(46.7698 46.7698)">
<stop stop-color="#FFDD55"/>
<stop offset="0.328" stop-color="#FF543F"/>
<stop offset="0.348" stop-color="#FC5245"/>
<stop offset="0.504" stop-color="#E64771"/>
<stop offset="0.643" stop-color="#D53E91"/>
<stop offset="0.761" stop-color="#CC39A4"/>
<stop offset="0.841" stop-color="#C837AB"/>
</radialGradient>
<radialGradient id="paint1_radial_341_182" cx="0" cy="0" r="1" gradientUnits="userSpaceOnUse" gradientTransform="translate(12.2768 5.77083) scale(31.0552 20.6921)">
<stop stop-color="#4168C9"/>
<stop offset="0.999" stop-color="#4168C9" stop-opacity="0"/>
</radialGradient>
</defs>
</svg>
