<svg width="25" height="25" viewBox="0 0 25 25" fill="none" xmlns="http://www.w3.org/2000/svg">
<path d="M23.9509 20.5881H1.03833C0.860793 20.5877 0.686342 20.5553 0.531543 20.4939C0.376744 20.4325 0.246736 20.3442 0.153865 20.2374C0.0609937 20.1306 0.00834297 20.0088 0.000912678 19.8835C-0.00651762 19.7583 0.0315194 19.6338 0.111411 19.5219C1.39646 17.6933 2.06988 15.6808 2.07981 13.6395V11.0292C2.07981 9.0791 3.17708 7.20885 5.13023 5.8299C7.08338 4.45095 9.73242 3.67627 12.4946 3.67627C15.2568 3.67627 17.9058 4.45095 19.859 5.8299C21.8121 7.20885 22.9094 9.0791 22.9094 11.0292V13.6248C22.9193 15.6661 23.5927 17.6786 24.8778 19.5072C24.9626 19.6196 25.0046 19.7457 24.9996 19.873C24.9946 20.0004 24.9429 20.1246 24.8494 20.2336C24.756 20.3426 24.624 20.4326 24.4665 20.4947C24.309 20.5568 24.1313 20.589 23.9509 20.5881ZM2.65262 19.1175H22.3366C21.3434 17.371 20.8309 15.5068 20.8264 13.6248V11.0292C20.8264 9.46912 19.9486 7.97292 18.3861 6.86976C16.8236 5.76661 14.7043 5.14686 12.4946 5.14686C10.2849 5.14686 8.16562 5.76661 6.6031 6.86976C5.04058 7.97292 4.16277 9.46912 4.16277 11.0292V13.6248C4.15831 15.5068 3.64579 17.371 2.65262 19.1175Z" fill="black"/>
<path d="M12.4945 24.9997C11.1134 24.9997 9.7889 24.6123 8.81232 23.9228C7.83574 23.2334 7.28711 22.2982 7.28711 21.3232C7.28711 21.1282 7.39684 20.9411 7.59215 20.8033C7.78747 20.6654 8.05237 20.5879 8.32859 20.5879C8.60481 20.5879 8.86971 20.6654 9.06503 20.8033C9.26034 20.9411 9.37007 21.1282 9.37007 21.3232C9.3708 21.908 9.70046 22.4687 10.2866 22.882C10.8826 23.2813 11.6729 23.5039 12.4945 23.5039C13.3161 23.5039 14.1064 23.2813 14.7024 22.882C14.7995 22.8135 14.9148 22.7591 15.0417 22.722C15.1686 22.6849 15.3046 22.6658 15.4419 22.6658C15.5792 22.6658 15.7152 22.6849 15.8421 22.722C15.969 22.7591 16.0842 22.8135 16.1813 22.882C16.2784 22.9506 16.3555 23.032 16.408 23.1215C16.4606 23.2111 16.4876 23.3071 16.4876 23.4041C16.4876 23.501 16.4606 23.597 16.408 23.6866C16.3555 23.7762 16.2784 23.8576 16.1813 23.9261C15.6969 24.2673 15.1219 24.5377 14.4893 24.722C13.8566 24.9062 13.1788 25.0005 12.4945 24.9997Z" fill="black"/>
<path d="M12.4946 3.67648C12.2184 3.67648 11.9535 3.59901 11.7582 3.46111C11.5629 3.32322 11.4531 3.13619 11.4531 2.94118V0.735295C11.4531 0.540283 11.5629 0.353258 11.7582 0.215363C11.9535 0.0774684 12.2184 0 12.4946 0C12.7708 0 13.0357 0.0774684 13.231 0.215363C13.4264 0.353258 13.5361 0.540283 13.5361 0.735295V2.94118C13.5361 3.13619 13.4264 3.32322 13.231 3.46111C13.0357 3.59901 12.7708 3.67648 12.4946 3.67648Z" fill="black"/>
</svg>
