<svg width="25" height="25" viewBox="0 0 25 25" fill="none" xmlns="http://www.w3.org/2000/svg">
<path d="M9.82145 0C4.40626 0 0 4.11246 0 9.16657C0 14.2207 4.40626 18.3331 9.82145 18.3331C15.2366 18.3331 19.6429 14.2207 19.6429 9.16657C19.6429 4.11246 15.2366 0 9.82145 0ZM9.82145 16.6665C5.39108 16.6665 1.78572 13.3024 1.78572 9.16657C1.78572 5.03162 5.39108 1.66665 9.82145 1.66665C14.2527 1.66665 17.8572 5.03162 17.8572 9.16657C17.8572 13.3024 14.2527 16.6665 9.82145 16.6665Z" fill="black"/>
<path d="M24.7378 23.5773L19.3798 18.5774C19.0307 18.2516 18.4664 18.2516 18.1173 18.5774C17.7682 18.9032 17.7682 19.4299 18.1173 19.7557L23.4753 24.7557C23.6495 24.9182 23.878 24.9998 24.1066 24.9998C24.3352 24.9998 24.5637 24.9182 24.7378 24.7557C25.087 24.4298 25.087 23.9032 24.7378 23.5773Z" fill="black"/>
</svg>
