<svg width="50" height="50" viewBox="0 0 50 50" fill="none" xmlns="http://www.w3.org/2000/svg">
<path fill-rule="evenodd" clip-rule="evenodd" d="M11.3583 6.25H38.6406C41.4625 6.25 43.75 8.5375 43.75 11.3583V38.6406C43.75 41.4625 41.4625 43.75 38.6417 43.75H11.3583C8.5375 43.75 6.25 41.4625 6.25 38.6417V11.3583C6.25 8.5375 8.5375 6.25 11.3583 6.25Z" fill="#212121"/>
<path fill-rule="evenodd" clip-rule="evenodd" d="M30.4248 21.4652C32.0665 22.6381 34.0779 23.3277 36.2498 23.3277V19.1495C35.8383 19.1495 35.429 19.1068 35.0269 19.0214V22.31C32.855 22.31 30.8446 21.6193 29.2019 20.4475V28.9725C29.2019 33.237 25.7425 36.6943 21.4758 36.6943C19.8842 36.6943 18.404 36.2131 17.1748 35.3881C18.5779 36.8214 20.5342 37.711 22.6988 37.711C26.9654 37.711 30.4248 34.2537 30.4248 29.9891V21.4652ZM31.9342 17.2506C31.0956 16.335 30.5446 15.1506 30.4248 13.8412V13.3037H29.2654C29.5571 14.9673 30.5529 16.3891 31.9342 17.2506ZM19.8738 32.1162C19.405 31.5016 19.1519 30.7506 19.1529 29.9777C19.1529 28.0266 20.7352 26.4454 22.6873 26.4454C23.0508 26.4454 23.4123 26.5006 23.7592 26.611V22.3402C23.354 22.285 22.9456 22.261 22.5363 22.2693V25.5933C22.1894 25.4829 21.8279 25.4277 21.4633 25.4277C19.5113 25.4277 17.929 27.0089 17.929 28.96C17.93 30.3402 18.7206 31.535 19.8738 32.1162Z" fill="#EC407A"/>
<path fill-rule="evenodd" clip-rule="evenodd" d="M29.2017 20.4475C30.8434 21.6204 32.8548 22.31 35.0267 22.31V19.0214C33.8142 18.7631 32.7413 18.1298 31.934 17.2495C30.5527 16.3881 29.5579 14.9673 29.2663 13.3037H26.2215V29.9891C26.2142 31.9339 24.635 33.5089 22.6871 33.5089C21.5392 33.5089 20.5194 32.962 19.8736 32.1152C18.7204 31.5339 17.9298 30.3391 17.9298 28.96C17.9298 27.0089 19.5121 25.4277 21.4642 25.4277C21.8382 25.4277 22.1986 25.486 22.5371 25.5933V22.2704C18.3454 22.3568 14.9746 25.7798 14.9746 29.9902C14.9746 32.0923 15.8142 33.9975 17.1767 35.3891C18.4059 36.2141 19.8861 36.6954 21.4777 36.6954C25.7444 36.6954 29.2038 33.2381 29.2038 28.9735L29.2017 20.4475Z" fill="white"/>
<path fill-rule="evenodd" clip-rule="evenodd" d="M35.0271 19.0226V18.133C33.9333 18.1351 32.8625 17.8288 31.9344 17.2497C32.7552 18.1486 33.8365 18.7684 35.0271 19.0226ZM29.2656 13.3038C29.2375 13.1445 29.2167 12.9851 29.2021 12.8236V12.2861H24.9979V28.9726C24.9917 30.9174 23.4115 32.4924 21.4635 32.4924C20.8917 32.4924 20.3521 32.357 19.874 32.1153C20.5198 32.9622 21.5396 33.509 22.6875 33.509C24.6354 33.509 26.2146 31.934 26.2219 29.9893V13.3038H29.2656ZM22.5365 22.2705V21.3236C22.1854 21.2757 21.8313 21.2518 21.476 21.2518C17.2083 21.2518 13.75 24.709 13.75 28.9736C13.75 31.6476 15.1094 34.0038 17.175 35.3893C15.8125 33.9976 14.9729 32.0924 14.9729 29.9903C14.9729 25.7799 18.3448 22.357 22.5365 22.2705Z" fill="#81D4FA"/>
</svg>
